<mxfile host="www.draw.io" modified="2019-11-11T11:38:03.030Z" agent="Mozilla/5.0 (Windows NT 10.0; Win64; x64) AppleWebKit/537.36 (KHTML, like Gecko) Chrome/78.0.3904.97 Safari/537.36" etag="uIK3t-Jjw7tqTBf5ov8l" version="12.2.3" type="github" pages="1">
  <diagram id="Hh-H-gLmMzHsiyCh0N2A" name="第 1 页">
    <mxGraphModel dx="2235" dy="731" grid="1" gridSize="10" guides="1" tooltips="1" connect="1" arrows="1" fold="1" page="1" pageScale="1" pageWidth="827" pageHeight="1169" math="0" shadow="0">
      <root>
        <mxCell id="0"/>
        <mxCell id="1" parent="0"/>
        <mxCell id="KmmQ_426rwuld6rDFAZq-25" value="" style="html=1;dashed=0;whitespace=wrap;shape=partialRectangle;right=0;left=0;fillColor=none;fontSize=14;" vertex="1" parent="1">
          <mxGeometry x="550" y="180" width="120" height="30" as="geometry"/>
        </mxCell>
        <mxCell id="KmmQ_426rwuld6rDFAZq-26" value="" style="shape=partialRectangle;whiteSpace=wrap;html=1;top=0;bottom=0;fillColor=none;fontSize=14;" vertex="1" parent="1">
          <mxGeometry x="560" y="180" width="20" height="30" as="geometry"/>
        </mxCell>
        <mxCell id="KmmQ_426rwuld6rDFAZq-27" value="" style="shape=partialRectangle;whiteSpace=wrap;html=1;top=0;bottom=0;fillColor=none;fontSize=14;" vertex="1" parent="1">
          <mxGeometry x="600" y="180" width="20" height="30" as="geometry"/>
        </mxCell>
        <mxCell id="KmmQ_426rwuld6rDFAZq-28" value="" style="shape=partialRectangle;whiteSpace=wrap;html=1;top=0;bottom=0;fillColor=none;fontSize=14;" vertex="1" parent="1">
          <mxGeometry x="640" y="180" width="20" height="30" as="geometry"/>
        </mxCell>
        <mxCell id="KmmQ_426rwuld6rDFAZq-29" value="" style="html=1;dashed=0;whitespace=wrap;shape=partialRectangle;right=0;left=0;fillColor=none;fontSize=14;" vertex="1" parent="1">
          <mxGeometry x="550" y="270" width="120" height="30" as="geometry"/>
        </mxCell>
        <mxCell id="KmmQ_426rwuld6rDFAZq-30" value="" style="shape=partialRectangle;whiteSpace=wrap;html=1;top=0;bottom=0;fillColor=none;fontSize=14;" vertex="1" parent="1">
          <mxGeometry x="560" y="270" width="20" height="30" as="geometry"/>
        </mxCell>
        <mxCell id="KmmQ_426rwuld6rDFAZq-31" value="" style="shape=partialRectangle;whiteSpace=wrap;html=1;top=0;bottom=0;fillColor=none;fontSize=14;" vertex="1" parent="1">
          <mxGeometry x="600" y="270" width="20" height="30" as="geometry"/>
        </mxCell>
        <mxCell id="KmmQ_426rwuld6rDFAZq-32" value="" style="shape=partialRectangle;whiteSpace=wrap;html=1;top=0;bottom=0;fillColor=none;fontSize=14;" vertex="1" parent="1">
          <mxGeometry x="640" y="270" width="20" height="30" as="geometry"/>
        </mxCell>
        <mxCell id="KmmQ_426rwuld6rDFAZq-33" value="" style="html=1;dashed=0;whitespace=wrap;shape=partialRectangle;right=0;left=0;fillColor=none;fontSize=14;" vertex="1" parent="1">
          <mxGeometry x="550" y="360" width="120" height="30" as="geometry"/>
        </mxCell>
        <mxCell id="KmmQ_426rwuld6rDFAZq-34" value="" style="shape=partialRectangle;whiteSpace=wrap;html=1;top=0;bottom=0;fillColor=none;fontSize=14;" vertex="1" parent="1">
          <mxGeometry x="560" y="360" width="20" height="30" as="geometry"/>
        </mxCell>
        <mxCell id="KmmQ_426rwuld6rDFAZq-35" value="" style="shape=partialRectangle;whiteSpace=wrap;html=1;top=0;bottom=0;fillColor=none;fontSize=14;" vertex="1" parent="1">
          <mxGeometry x="600" y="360" width="20" height="30" as="geometry"/>
        </mxCell>
        <mxCell id="KmmQ_426rwuld6rDFAZq-36" value="" style="shape=partialRectangle;whiteSpace=wrap;html=1;top=0;bottom=0;fillColor=none;fontSize=14;" vertex="1" parent="1">
          <mxGeometry x="640" y="360" width="20" height="30" as="geometry"/>
        </mxCell>
        <mxCell id="KmmQ_426rwuld6rDFAZq-37" value="" style="html=1;dashed=0;whitespace=wrap;shape=partialRectangle;right=0;left=0;fillColor=none;fontSize=14;" vertex="1" parent="1">
          <mxGeometry x="550" y="450" width="120" height="30" as="geometry"/>
        </mxCell>
        <mxCell id="KmmQ_426rwuld6rDFAZq-38" value="" style="shape=partialRectangle;whiteSpace=wrap;html=1;top=0;bottom=0;fillColor=none;fontSize=14;" vertex="1" parent="1">
          <mxGeometry x="560" y="450" width="20" height="30" as="geometry"/>
        </mxCell>
        <mxCell id="KmmQ_426rwuld6rDFAZq-39" value="" style="shape=partialRectangle;whiteSpace=wrap;html=1;top=0;bottom=0;fillColor=none;fontSize=14;" vertex="1" parent="1">
          <mxGeometry x="600" y="450" width="20" height="30" as="geometry"/>
        </mxCell>
        <mxCell id="KmmQ_426rwuld6rDFAZq-40" value="" style="shape=partialRectangle;whiteSpace=wrap;html=1;top=0;bottom=0;fillColor=none;fontSize=14;" vertex="1" parent="1">
          <mxGeometry x="640" y="450" width="20" height="30" as="geometry"/>
        </mxCell>
        <mxCell id="KmmQ_426rwuld6rDFAZq-41" value="" style="html=1;dashed=0;whitespace=wrap;shape=partialRectangle;right=0;left=0;fillColor=none;fontSize=14;" vertex="1" parent="1">
          <mxGeometry x="550" y="550" width="120" height="30" as="geometry"/>
        </mxCell>
        <mxCell id="KmmQ_426rwuld6rDFAZq-42" value="" style="shape=partialRectangle;whiteSpace=wrap;html=1;top=0;bottom=0;fillColor=none;fontSize=14;" vertex="1" parent="1">
          <mxGeometry x="560" y="550" width="20" height="30" as="geometry"/>
        </mxCell>
        <mxCell id="KmmQ_426rwuld6rDFAZq-43" value="" style="shape=partialRectangle;whiteSpace=wrap;html=1;top=0;bottom=0;fillColor=none;fontSize=14;" vertex="1" parent="1">
          <mxGeometry x="600" y="550" width="20" height="30" as="geometry"/>
        </mxCell>
        <mxCell id="KmmQ_426rwuld6rDFAZq-44" value="" style="shape=partialRectangle;whiteSpace=wrap;html=1;top=0;bottom=0;fillColor=none;fontSize=14;" vertex="1" parent="1">
          <mxGeometry x="640" y="550" width="20" height="30" as="geometry"/>
        </mxCell>
        <mxCell id="KmmQ_426rwuld6rDFAZq-45" value="" style="html=1;shadow=0;dashed=0;align=center;verticalAlign=middle;shape=mxgraph.arrows2.arrow;dy=0.6;dx=40;notch=0;fontSize=14;" vertex="1" parent="1">
          <mxGeometry x="-90" y="355" width="200" height="20" as="geometry"/>
        </mxCell>
        <mxCell id="KmmQ_426rwuld6rDFAZq-46" value="" style="html=1;shadow=0;dashed=0;align=center;verticalAlign=middle;shape=mxgraph.arrows2.arrow;dy=0.6;dx=40;notch=0;fontSize=14;" vertex="1" parent="1">
          <mxGeometry x="338" y="350" width="150" height="20" as="geometry"/>
        </mxCell>
        <mxCell id="KmmQ_426rwuld6rDFAZq-47" value="" style="html=1;shadow=0;dashed=0;align=center;verticalAlign=middle;shape=mxgraph.arrows2.arrow;dy=0.6;dx=40;notch=0;fontSize=14;" vertex="1" parent="1">
          <mxGeometry x="710" y="355" width="200" height="20" as="geometry"/>
        </mxCell>
        <mxCell id="KmmQ_426rwuld6rDFAZq-48" value="push to globle unlimited queue" style="rounded=0;whiteSpace=wrap;html=1;shadow=1;opacity=0;fontSize=14;" vertex="1" parent="1">
          <mxGeometry x="-120" y="330" width="210" height="20" as="geometry"/>
        </mxCell>
        <mxCell id="KmmQ_426rwuld6rDFAZq-49" value="pri&lt;span style=&quot;font-size: 14px; background-color: rgb(255, 255, 255);&quot;&gt;ority&amp;nbsp;&lt;/span&gt;queue" style="rounded=0;whiteSpace=wrap;html=1;shadow=1;opacity=0;fontSize=14;fillColor=#f8cecc;strokeColor=#b85450;fontColor=#FF0000;" vertex="1" parent="1">
          <mxGeometry x="140" y="320" width="180" height="20" as="geometry"/>
        </mxCell>
        <mxCell id="KmmQ_426rwuld6rDFAZq-50" value="HASH(db+tb)%queueNum" style="rounded=0;whiteSpace=wrap;html=1;shadow=1;opacity=0;fontSize=14;" vertex="1" parent="1">
          <mxGeometry x="335" y="330" width="180" height="20" as="geometry"/>
        </mxCell>
        <mxCell id="KmmQ_426rwuld6rDFAZq-51" value="buffered queue" style="rounded=0;whiteSpace=wrap;html=1;shadow=1;opacity=0;fontSize=14;" vertex="1" parent="1">
          <mxGeometry x="520" y="150" width="180" height="20" as="geometry"/>
        </mxCell>
        <mxCell id="KmmQ_426rwuld6rDFAZq-52" value="goroutine per queue" style="rounded=0;whiteSpace=wrap;html=1;shadow=1;opacity=0;fontSize=14;" vertex="1" parent="1">
          <mxGeometry x="710" y="330" width="180" height="20" as="geometry"/>
        </mxCell>
        <mxCell id="KmmQ_426rwuld6rDFAZq-53" value="" style="html=1;dashed=0;whitespace=wrap;shape=partialRectangle;right=0;left=0;fillColor=none;fontSize=14;" vertex="1" parent="1">
          <mxGeometry x="170" y="360" width="120" height="30" as="geometry"/>
        </mxCell>
        <mxCell id="KmmQ_426rwuld6rDFAZq-54" value="" style="shape=partialRectangle;whiteSpace=wrap;html=1;top=0;bottom=0;fillColor=none;fontSize=14;" vertex="1" parent="1">
          <mxGeometry x="180" y="360" width="20" height="30" as="geometry"/>
        </mxCell>
        <mxCell id="KmmQ_426rwuld6rDFAZq-55" value="" style="shape=partialRectangle;whiteSpace=wrap;html=1;top=0;bottom=0;fillColor=none;fontSize=14;" vertex="1" parent="1">
          <mxGeometry x="220" y="360" width="20" height="30" as="geometry"/>
        </mxCell>
        <mxCell id="KmmQ_426rwuld6rDFAZq-56" value="" style="shape=partialRectangle;whiteSpace=wrap;html=1;top=0;bottom=0;fillColor=none;fontSize=14;" vertex="1" parent="1">
          <mxGeometry x="260" y="360" width="20" height="30" as="geometry"/>
        </mxCell>
      </root>
    </mxGraphModel>
  </diagram>
</mxfile>
